<svg width="60" height="60" viewBox="0 0 60 60" fill="none" xmlns="http://www.w3.org/2000/svg">
<circle cx="30" cy="30" r="30" fill="#E42535"/>
<path d="M29.4988 13C24.7421 13 24.1493 13.0217 22.2877 13.0959C20.4185 13.1825 19.1541 13.4558 18.0385 13.8642C16.8709 14.2798 15.8134 14.9305 14.9399 15.771C14.046 16.5927 13.3555 17.5902 12.9175 18.6925C12.4844 19.7444 12.1946 20.9365 12.1027 22.6989C12.0185 24.4551 12.001 25.013 12.001 29.4979C12.001 33.9828 12.0239 34.5418 12.1027 36.297C12.1946 38.0542 12.4844 39.2515 12.9175 40.3034C13.3583 41.4043 14.0485 42.4013 14.9399 43.2249C15.8114 44.0677 16.8694 44.7188 18.0385 45.1317C19.1541 45.5349 20.4239 45.8133 22.2877 45.9C24.1503 45.9794 24.7421 45.9959 29.4988 45.9959C34.2555 45.9959 34.8483 45.9742 36.7099 45.9C38.5736 45.8133 39.8435 45.5339 40.9591 45.1317C42.1267 44.7161 43.1842 44.0654 44.0577 43.2249C44.9527 42.4041 45.6434 41.4063 46.08 40.3034C46.5077 39.2515 46.803 38.0542 46.8949 36.297C46.9791 34.5408 46.9966 33.9828 46.9966 29.4979C46.9966 25.013 46.9736 24.4541 46.8949 22.6989C46.803 20.9417 46.5066 19.7382 46.08 18.6925C45.6392 17.5916 44.9491 16.5946 44.0577 15.771C43.1871 14.9271 42.1288 14.2758 40.9591 13.8642C39.8435 13.4558 38.5736 13.1825 36.7099 13.0959C34.8472 13.0165 34.2555 13 29.4988 13ZM29.4988 15.97C34.1702 15.97 34.728 15.9917 36.5743 16.0659C38.2772 16.1412 39.2047 16.4093 39.8205 16.6362C40.5818 16.9011 41.2708 17.3228 41.8374 17.8706C42.4173 18.4025 42.8629 19.0507 43.1411 19.7671C43.3818 20.3477 43.6661 21.2222 43.746 22.8278C43.8247 24.5686 43.8477 25.0955 43.8477 29.499C43.8477 33.9024 43.8247 34.4294 43.7394 36.1701C43.6475 37.7758 43.3632 38.6503 43.1236 39.2309C42.7922 40.0053 42.4225 40.5468 41.8122 41.1325C41.2437 41.6768 40.5552 42.0965 39.7953 42.3617C39.1872 42.5886 38.2466 42.8568 36.5371 42.932C34.681 43.0063 34.1341 43.0279 29.4507 43.0279C24.7672 43.0279 24.2214 43.0063 22.3632 42.9258C20.6602 42.8392 19.7207 42.5711 19.1049 42.3452C18.2736 42.0328 17.7038 41.6842 17.0935 41.1088C16.4777 40.5282 16.0861 39.9754 15.7843 39.2072C15.5393 38.6338 15.2593 37.7469 15.1685 36.1351C15.1061 34.4057 15.0766 33.8694 15.0766 29.4742C15.0766 25.0811 15.1061 24.5438 15.1685 22.7928C15.2593 21.1809 15.5393 20.2961 15.7843 19.7207C16.0861 18.9359 16.4788 18.3996 17.0935 17.819C17.7027 17.2446 18.2736 16.8734 19.1049 16.5826C19.7207 16.3567 20.6372 16.0886 22.3468 16.0082C24.2029 15.9453 24.7497 15.9226 29.4266 15.9226L29.4988 15.97ZM29.4988 21.0303C28.319 21.0299 27.1507 21.2487 26.0606 21.6742C24.9706 22.0997 23.9801 22.7236 23.1459 23.5101C22.3117 24.2967 21.65 25.2306 21.1987 26.2583C20.7474 27.2861 20.5154 28.3876 20.5158 29.5C20.5154 30.6124 20.7474 31.7139 21.1987 32.7417C21.65 33.7694 22.3117 34.7033 23.1459 35.4899C23.9801 36.2764 24.9706 36.9003 26.0606 37.3258C27.1507 37.7513 28.319 37.9701 29.4988 37.9697C30.6786 37.9701 31.8469 37.7513 32.9369 37.3258C34.027 36.9003 35.0174 36.2764 35.8517 35.4899C36.6859 34.7033 37.3476 33.7694 37.7988 32.7417C38.2501 31.7139 38.4822 30.6124 38.4818 29.5C38.4822 28.3876 38.2501 27.2861 37.7988 26.2583C37.3476 25.2306 36.6859 24.2967 35.8517 23.5101C35.0174 22.7236 34.027 22.0997 32.9369 21.6742C31.8469 21.2487 30.6786 21.0299 29.4988 21.0303ZM29.4988 34.9997C26.2744 34.9997 23.6658 32.5401 23.6658 29.5C23.6658 26.4599 26.2744 24.0003 29.4988 24.0003C32.7232 24.0003 35.3318 26.4599 35.3318 29.5C35.3318 32.5401 32.7232 34.9997 29.4988 34.9997ZM40.9438 20.6921C40.9432 21.2177 40.7214 21.7216 40.327 22.093C39.9326 22.4645 39.398 22.6731 38.8405 22.6731C38.5649 22.6731 38.2919 22.6219 38.0373 22.5225C37.7826 22.423 37.5513 22.2773 37.3564 22.0935C37.1615 21.9097 37.0068 21.6916 36.9014 21.4515C36.7959 21.2114 36.7416 20.954 36.7416 20.6942C36.7416 20.4343 36.7959 20.1769 36.9014 19.9368C37.0068 19.6967 37.1615 19.4786 37.3564 19.2948C37.5513 19.111 37.7826 18.9653 38.0373 18.8658C38.2919 18.7664 38.5649 18.7152 38.8405 18.7152C39.9966 18.7152 40.9438 19.6021 40.9438 20.6921Z" fill="#F1FAEE"/>
</svg>
