<svg width="60" height="60" viewBox="0 0 60 60" fill="none" xmlns="http://www.w3.org/2000/svg">
<circle cx="30" cy="30" r="30" fill="#E42535"/>
<g clip-path="url(#clip0)">
<path d="M29.5646 42.3925C23.026 42.3925 20.1071 38.6786 20.1071 35.8957C20.1071 34.4599 21.0151 33.4643 22.2716 33.4643C25.0711 33.4643 24.3411 38.1077 29.5646 38.1077C32.2313 38.1077 33.7035 36.43 33.7035 34.7172C33.7035 33.685 33.2721 32.5418 31.5073 32.0369L25.6927 30.3593C21.0139 28.9966 20.1644 26.0744 20.1644 23.321C20.1644 17.6074 24.8176 15.4699 29.1844 15.4699C33.1965 15.4699 37.9448 18.0405 37.9448 21.4689C37.9448 22.9343 36.8272 23.7907 35.5828 23.7907C33.1965 23.7907 33.6401 19.9671 28.8163 19.9671C26.43 19.9671 25.0967 21.2116 25.0967 22.9989C25.0967 24.7863 26.9687 25.3572 28.6006 25.7889L32.8857 26.8872C37.5828 28.1107 38.7759 31.2888 38.7759 34.2841C38.7759 38.9275 35.6852 42.3925 29.4769 42.3925H29.5646ZM47.4839 33.2364L47.44 33.4924L47.3706 33.0382C47.3901 33.1268 47.44 33.1774 47.4656 33.2646C47.6558 31.9975 47.7581 30.708 47.7581 29.4199C47.7581 26.5483 47.2694 23.7724 46.2981 21.1286C45.3755 18.6086 44.0368 16.3199 42.3566 14.3899C40.6492 12.4493 38.7065 10.9108 36.5164 9.84207C34.3714 8.65519 31.9656 8.09832 29.483 8.09832C28.3081 8.09832 27.1344 8.22347 25.9986 8.47941L26.1887 8.5891L25.8011 8.53003L25.9973 8.47941C24.4252 7.50918 22.67 7.00107 20.8871 7.00003C19.4566 6.99618 18.0398 7.32054 16.7189 7.95427C15.398 8.58799 14.1995 9.51842 13.1932 10.6914C12.1777 11.8577 11.3727 13.2446 10.8247 14.772C10.2766 16.2994 9.99631 17.937 10 19.5902C10 21.7361 10.4766 23.8385 11.3711 25.6989L11.4028 25.4725L11.4723 25.9197L11.3772 25.7003C11.1872 26.911 11.0917 28.1389 11.092 29.3693C11.092 32.2408 11.5808 35.0238 12.5326 37.645C13.4395 40.1835 14.7799 42.4853 16.474 44.4133C18.1451 46.3616 20.1287 47.9163 22.3143 48.9907C24.5758 50.112 27.0129 50.6855 29.4744 50.6753C30.5469 50.6753 31.6389 50.5657 32.6859 50.3378L32.4896 50.2282L32.8833 50.3083L32.6615 50.3674C34.294 51.4397 36.1406 52.0024 38.0191 52C39.448 52.0041 40.8633 51.6805 42.1829 51.048C43.5025 50.4155 44.6999 49.4867 45.7058 48.3157C46.7214 47.1496 47.5266 45.7628 48.0747 44.2353C48.6228 42.7078 48.9029 41.0701 48.8989 39.4169C48.8921 37.273 48.4136 35.1663 47.5083 33.2941L47.4839 33.2364Z" fill="#F1FAEE"/>
</g>
<defs>
<clipPath id="clip0">
<rect width="39" height="45" fill="white" transform="translate(10 7)"/>
</clipPath>
</defs>
</svg>
