<svg width="49" height="53" viewBox="0 0 49 53" fill="none" xmlns="http://www.w3.org/2000/svg">
<ellipse cx="24.5" cy="26.5" rx="24.5" ry="26.5" fill="#F1FAEE"/>
<g clip-path="url(#clip0)">
<path d="M22.5547 37.6735C17.022 37.6735 14.5522 34.4548 14.5522 32.0429C14.5522 30.7986 15.3205 29.9357 16.3837 29.9357C18.7525 29.9357 18.1348 33.96 22.5547 33.96C24.8111 33.96 26.0568 32.506 26.0568 31.0216C26.0568 30.127 25.6918 29.1362 24.1985 28.6987L19.2784 27.2447C15.3194 26.0637 14.6007 23.5312 14.6007 21.1448C14.6007 16.1931 18.538 14.3406 22.2329 14.3406C25.6278 14.3406 29.6456 16.5684 29.6456 19.5397C29.6456 20.8097 28.6999 21.5519 27.647 21.5519C25.6278 21.5519 26.0032 18.2381 21.9215 18.2381C19.9023 18.2381 18.7741 19.3167 18.7741 20.8657C18.7741 22.4148 20.3581 22.9096 21.739 23.2837L25.3648 24.2356C29.3393 25.2959 30.3489 28.0503 30.3489 30.6462C30.3489 34.6705 27.7336 37.6735 22.4804 37.6735H22.5547ZM37.7172 29.7382L37.68 29.9601L37.6213 29.5664C37.6378 29.6432 37.68 29.6871 37.7017 29.7626C37.8626 28.6645 37.9492 27.5469 37.9492 26.4306C37.9492 23.9419 37.5357 21.5361 36.7138 19.2448C35.9331 17.0608 34.8004 15.0772 33.3787 13.4046C31.9339 11.7227 30.2901 10.3894 28.4369 9.46312C26.6219 8.4345 24.5863 7.95187 22.4856 7.95187C21.4915 7.95187 20.4984 8.06034 19.5373 8.28215L19.6981 8.37722L19.3702 8.32603L19.5362 8.28215C18.2059 7.44129 16.7208 7.00093 15.2122 7.00003C14.0018 6.99669 12.8029 7.2778 11.6852 7.82703C10.5676 8.37626 9.55346 9.18263 8.70191 10.1992C7.84271 11.21 7.16155 12.412 6.69779 13.7358C6.23403 15.0595 5.99688 16.4788 6.00003 17.9115C6.00003 19.7713 6.40325 21.5933 7.16019 23.2057L7.187 23.0095L7.24578 23.3971L7.16534 23.207C7.00454 24.2562 6.92378 25.3204 6.92403 26.3867C6.92403 28.8754 7.33756 31.2873 8.14297 33.559C8.91031 35.759 10.0445 37.7539 11.478 39.4249C12.892 41.1134 14.5704 42.4608 16.4198 43.3919C18.3334 44.3638 20.3956 44.8607 22.4784 44.852C23.3859 44.852 24.3099 44.7569 25.1957 44.5595L25.0297 44.4644L25.3628 44.5339L25.1751 44.5851C26.5565 45.5144 28.119 46.0021 29.7085 46C30.9175 46.0035 32.1151 45.7231 33.2317 45.1749C34.3482 44.6267 35.3615 43.8218 36.2126 42.8069C37.072 41.7963 37.7533 40.5944 38.2171 39.2706C38.6809 37.9468 38.9179 36.5274 38.9144 35.0947C38.9087 33.2366 38.5038 31.4108 37.7378 29.7882L37.7172 29.7382Z" fill="#457B9D"/>
</g>
<defs>
<clipPath id="clip0">
<rect width="33" height="39" fill="white" transform="translate(6 7)"/>
</clipPath>
</defs>
</svg>
